<svg width="161" height="28" viewBox="0 0 161 28" fill="none" xmlns="http://www.w3.org/2000/svg">
<path d="M20.3106 18.8849C19.6945 18.8849 19.3863 18.4764 19.3863 17.6592V13.1063C19.3863 11.6616 18.9461 10.5525 18.066 9.77904C17.2007 8.99087 15.9391 8.59697 14.2815 8.59697C13.3133 8.59697 12.4476 8.72827 11.6848 8.99087C10.9368 9.25346 10.3498 9.62573 9.92433 10.1073C9.51361 10.5742 9.30826 11.114 9.30826 11.7269C9.30826 12.1791 9.43287 12.544 9.68248 12.8213C9.94646 13.0839 10.2838 13.2152 10.6945 13.2152C11.1052 13.2152 11.45 13.0766 11.6848 12.7993C11.9197 12.5073 12.0369 12.1061 12.0369 11.5956C12.0664 10.9681 12.2423 10.4938 12.5649 10.1729C12.8875 9.85203 13.3572 9.69138 13.9733 9.69138C14.7508 9.69138 15.33 9.96865 15.7116 10.5232C16.1076 11.0631 16.3056 11.8949 16.3056 13.0186V14.0474C14.5893 14.0474 13.2174 14.208 12.1906 14.5289C11.1343 14.7915 10.3277 15.1928 9.77021 15.7326C9.22751 16.2725 8.95616 16.9437 8.95616 17.7465C8.95616 18.7096 9.30826 19.4758 10.0125 20.045C10.7166 20.5995 11.6701 20.8768 12.8731 20.8768C13.724 20.8768 14.4721 20.7308 15.1177 20.4389C15.7632 20.1469 16.2473 19.7384 16.5699 19.2132C16.7167 19.6511 16.9733 20.0014 17.3401 20.264C17.7217 20.5119 18.1763 20.6362 18.7042 20.6362C19.3056 20.6362 19.7897 20.4903 20.1565 20.1983C20.5377 19.8917 20.78 19.4542 20.8828 18.8849L20.773 18.7757C20.6557 18.8486 20.5016 18.8849 20.311 18.8849H20.3106ZM16.3059 17.8125C16.1445 18.3088 15.8731 18.6953 15.4919 18.9726C15.125 19.2499 14.6705 19.3885 14.1278 19.3885C13.5117 19.3885 13.0128 19.2062 12.6316 18.8413C12.25 18.4764 12.0594 17.9875 12.0594 17.3746C12.0594 16.4845 12.4775 15.857 13.3137 15.492C13.651 15.3461 14.0913 15.2295 14.634 15.1418C15.1914 15.0395 15.7489 14.9811 16.3063 14.9665V17.8122L16.3059 17.8125Z" fill="black"/>
<path d="M81.1388 9.34151C80.1559 8.84528 78.9971 8.59736 77.6621 8.59736C76.3271 8.59736 75.2052 8.85262 74.2075 9.36352C73.2246 9.85975 72.4618 10.5819 71.9191 11.5303C71.3911 12.4645 71.1271 13.5589 71.1271 14.8135C71.1271 16.0682 71.3837 17.1337 71.8973 18.0531C72.4253 18.9579 73.1807 19.6584 74.1636 20.1547C75.1466 20.6362 76.3127 20.8772 77.6621 20.8772C79.0115 20.8772 80.2002 20.6293 81.1831 20.133C82.1656 19.6368 82.9214 18.9294 83.4494 18.0099C83.9773 17.0904 84.2417 16.0033 84.2417 14.7483C84.2417 13.4932 83.97 12.4062 83.4273 11.4867C82.8993 10.5525 82.1365 9.83774 81.1388 9.34151ZM80.1268 18.4254C79.5693 19.2572 78.7479 19.6731 77.6621 19.6731C75.4765 19.6731 74.3838 18.0315 74.3838 14.7479C74.3838 13.1426 74.6625 11.9242 75.2199 11.0924C75.7918 10.2459 76.6062 9.82268 77.6621 9.82268C78.718 9.82268 79.5324 10.2533 80.1047 11.114C80.6916 11.9605 80.9851 13.1715 80.9851 14.7475C80.9851 16.3235 80.699 17.5785 80.1268 18.425V18.4254Z" fill="black"/>
<path d="M57.7148 9.36314C56.9815 8.85223 56.1306 8.59697 55.1624 8.59697C54.1943 8.59697 53.3359 8.85223 52.5879 9.36314C51.8546 9.85937 51.3192 10.5525 50.9815 11.4427V9.03489H46.0747L48.1651 11.4207V22.7154L47.131 25.0139H52.8961L51.2459 23.0656V18.622C51.6418 19.3514 52.1772 19.9133 52.8519 20.3076C53.5269 20.6868 54.2898 20.8768 55.1403 20.8768C56.1085 20.8768 56.9668 20.6216 57.7148 20.1106C58.4633 19.5997 59.0425 18.8776 59.4532 17.9435C59.8639 17.0097 60.0693 15.9296 60.0693 14.7039C60.0693 13.4782 59.8639 12.4274 59.4532 11.5079C59.0425 10.5885 58.4633 9.87365 57.7148 9.36275V9.36314ZM56.0646 17.7685C55.5514 18.5127 54.8472 18.8849 53.9524 18.8849C53.3507 18.8849 52.808 18.7243 52.3239 18.4034C51.8546 18.0678 51.4951 17.6009 51.2459 17.0024V12.493C51.4951 11.8949 51.8546 11.4276 52.3239 11.092C52.808 10.7564 53.3507 10.5885 53.9524 10.5885C54.8472 10.5885 55.5514 10.9534 56.0646 11.6829C56.5782 12.4123 56.8348 13.4268 56.8348 14.7255C56.8348 16.0242 56.5782 17.024 56.0646 17.7681V17.7685Z" fill="black"/>
<path d="M70.3573 9.38515C70.0053 9.07853 69.5433 8.92561 68.9711 8.92561C68.0763 8.92561 67.2914 9.27586 66.6167 9.97638C65.942 10.6769 65.4579 11.64 65.1644 12.8657V9.03528H60.2797L62.3698 11.421V18.3381L61.3356 20.6366H67.1007L65.4505 18.6884V14.5513C65.8173 12.8294 66.4482 11.8663 67.343 11.662C67.5041 11.6473 67.6508 11.662 67.7828 11.7056C67.9148 11.735 68.0763 11.7933 68.2669 11.881C68.619 12.0706 68.942 12.1656 69.2351 12.1656C69.7192 12.1656 70.1155 12.0196 70.4233 11.7277C70.7316 11.4357 70.8857 11.0565 70.8857 10.5892C70.8857 10.093 70.7094 9.69177 70.3573 9.38515Z" fill="black"/>
<path d="M95.8566 7.48094C96.3407 7.48094 96.7441 7.32029 97.0667 6.99939C97.3893 6.67848 97.5508 6.26991 97.5508 5.77368C97.5508 5.27745 97.3893 4.86155 97.0667 4.52596C96.7441 4.19038 96.3407 4.0224 95.8566 4.0224C95.3726 4.0224 94.9397 4.19038 94.6024 4.52596C94.2794 4.86155 94.1183 5.27745 94.1183 5.77368C94.1183 6.26991 94.2794 6.67848 94.6024 6.99939C94.9397 7.32029 95.3578 7.48094 95.8566 7.48094Z" fill="black"/>
<path d="M34.3386 9.03489H29.2338L30.4438 10.8078L25.8231 14.8576V4.21934H20.608L22.7427 6.67076V18.2501L21.6643 20.6362H27.3413L25.8231 18.8413V16.3459L26.8572 15.4264L29.542 18.7973L29.1457 20.6362H34.7788L29.1239 13.5658L34.3386 9.03489Z" fill="black"/>
<path d="M7.01943 19.3665C5.86065 19.3665 5.28107 18.6003 5.28107 17.068V10.6109H7.96547V9.03489H5.28107V5.20447H3.23487L2.24457 9.03489H0V10.6109H2.17858V17.309C2.17858 18.4474 2.46468 19.3302 3.03689 19.9577C3.60909 20.5706 4.41577 20.8772 5.45731 20.8772C6.17626 20.8772 6.79233 20.7312 7.30553 20.4393C7.83349 20.1327 8.22984 19.7025 8.49381 19.1479L8.29583 18.929C7.9876 19.2209 7.56252 19.3669 7.01943 19.3669V19.3665Z" fill="black"/>
<path d="M44.0626 18.7316C43.4757 18.9942 42.8084 19.1255 42.0603 19.1255C40.74 19.1255 39.6911 18.7533 38.9135 18.0091C38.136 17.2503 37.6814 16.1706 37.5494 14.7695H45.7567C45.8157 12.814 45.3829 11.2963 44.4586 10.2166C43.549 9.13684 42.2214 8.59697 40.476 8.59697C39.2583 8.59697 38.1802 8.86691 37.2412 9.40677C36.3169 9.93197 35.5983 10.6692 35.0847 11.6176C34.5711 12.566 34.3145 13.6604 34.3145 14.9008C34.3145 16.1412 34.5638 17.1479 35.0626 18.0527C35.5614 18.9575 36.2656 19.6581 37.1752 20.1543C38.0995 20.6358 39.1775 20.8768 40.4101 20.8768C41.7156 20.8768 42.8522 20.5995 43.8204 20.045C44.7886 19.4905 45.5514 18.6807 46.1088 17.6152L45.8891 17.4399C45.2726 18.0381 44.664 18.4687 44.0626 18.7312V18.7316ZM38.3196 10.8298C38.8328 10.1586 39.5296 9.82307 40.4101 9.82307C41.2905 9.82307 41.9283 10.144 42.3681 10.7862C42.8231 11.4284 43.0502 12.3768 43.0502 13.6319H37.4834C37.542 12.4208 37.8208 11.4867 38.3196 10.8302V10.8298Z" fill="black"/>
<path d="M97.3749 9.03489H89.9812C89.1451 9.03489 88.4851 8.88892 88.001 8.59697C87.5317 8.29036 87.2968 7.88179 87.2968 7.37127C87.2968 6.9627 87.4288 6.63446 87.6928 6.38615C87.9715 6.13823 88.331 6.01388 88.7712 6.01388C88.9618 6.01388 89.1307 6.04323 89.2771 6.10154C89.4238 6.15985 89.6218 6.24751 89.8714 6.36414C90.3116 6.59777 90.7002 6.71439 91.0375 6.71439C91.4191 6.71439 91.727 6.61206 91.9618 6.40777C92.1963 6.18881 92.3139 5.91154 92.3139 5.57596C92.3139 5.10908 92.0865 4.72948 91.6315 4.43792C91.1769 4.14597 90.5682 4 89.8054 4C89.0426 4 88.3823 4.14597 87.7809 4.43792C87.194 4.71519 86.732 5.11642 86.3947 5.642C86.0721 6.1529 85.9106 6.72907 85.9106 7.37127C85.9106 8.01347 86.0795 8.5823 86.4168 9.03489H84.4805V10.5888H86.5488V18.447L85.5585 20.6358H91.1917L89.6292 18.7753V10.5888H94.2941V18.3377L93.26 20.6362H99.0251L97.3749 18.688V9.03489Z" fill="black"/>
<path d="M106.045 19.3665C104.886 19.3665 104.307 18.6003 104.307 17.068V10.6109H106.991V9.03489H104.307V5.20447H102.26L101.27 9.03489H99.0259V10.6109H101.204V17.309C101.204 18.4474 101.49 19.3302 102.062 19.9577C102.635 20.5706 103.441 20.8772 104.483 20.8772C105.202 20.8772 105.818 20.7312 106.331 20.4393C106.859 20.1327 107.255 19.7025 107.519 19.1479L107.321 18.929C107.013 19.2209 106.588 19.3669 106.045 19.3669V19.3665Z" fill="black"/>
<path d="M138.795 15.0627C138.828 14.9475 138.814 14.8352 138.636 14.8328C138.667 14.714 138.757 14.5618 138.714 14.4971C138.571 14.2789 138.645 14.0414 138.594 13.8221C138.527 13.534 138.341 13.2735 138.413 12.9531C138.419 12.9231 138.348 12.879 138.319 12.8379C138.039 12.4463 137.772 12.0435 137.476 11.6649C137.297 11.4356 137.083 11.231 136.866 11.0358C136.574 10.7736 136.212 10.5719 135.976 10.2697C135.676 9.88516 135.24 9.70113 134.891 9.3948C134.564 9.10847 134.048 9.10553 133.72 8.77275C133.381 8.82155 133.115 8.50405 132.755 8.5993C132.618 8.63517 132.45 8.55109 132.296 8.51816C132.232 8.50405 132.149 8.44349 132.11 8.46642C131.757 8.66927 131.343 8.47113 130.975 8.6728C130.633 8.85977 130.242 8.96619 129.862 9.07143C129.447 9.18549 129.024 9.2731 128.6 9.34365C128.084 9.42891 127.606 9.57413 127.317 10.0486C127.205 10.2326 127.104 10.4237 126.994 10.6078C126.715 11.0758 126.421 11.5238 126.047 11.9189C125.802 12.1776 125.568 12.4486 125.308 12.6915C124.903 13.0689 124.857 13.2177 125.039 13.7521C125.057 13.8033 125.053 13.9056 125.024 13.9209C124.908 13.985 124.97 14.0608 124.966 14.1484C124.945 14.55 125.286 14.7899 125.398 15.1374C125.454 15.3126 125.629 15.509 125.765 15.673C126.016 15.9746 126.072 16.3092 126.106 16.6707C126.118 16.7995 126.135 16.9759 126.219 17.0423C126.569 17.3157 126.638 17.7126 126.738 18.0971C126.782 18.2635 126.799 18.4364 126.832 18.6304C126.923 18.7721 127.002 18.9855 127.154 19.1102C127.531 19.4183 127.931 19.7122 128.419 19.8269C129.305 20.0344 130.206 20.1591 131.077 20.4525C131.5 20.5948 131.986 20.7341 132.446 20.4701C132.49 20.4454 132.551 20.4548 132.602 20.4413C132.847 20.3784 133.102 20.339 133.333 20.2426C133.757 20.0662 134.201 19.9451 134.596 19.6834C135.021 19.4012 135.49 19.1825 135.941 18.9397C136.032 18.8915 136.133 18.8615 136.225 18.8168C136.365 18.7498 136.516 18.6957 136.636 18.6022C136.931 18.3699 137.214 18.1212 137.496 17.8731C137.594 17.7885 137.683 17.692 137.764 17.5915C137.931 17.3845 138.091 17.1717 138.252 16.9606C138.407 16.7578 138.526 16.5485 138.57 16.2815C138.597 16.1145 138.547 15.9593 138.571 15.8117C138.613 15.5566 138.725 15.3137 138.795 15.0627ZM135.556 13.1224C135.499 13.7827 135.43 14.4418 135.368 15.1015C135.345 15.3361 135.33 15.5707 135.305 15.8917C135.228 15.9652 135.074 16.0311 135.095 16.2645C135.109 16.4126 135.007 16.6361 134.884 16.7184C134.657 16.8718 134.575 17.06 134.587 17.3375C134.46 17.3269 134.36 17.3193 134.245 17.3099C133.789 18.0895 133.116 18.6498 132.331 19.0878C132.253 19.1313 132.152 19.1654 132.066 19.1584C131.673 19.1261 131.274 19.1119 130.936 18.8579C130.854 18.7962 130.739 18.7803 130.64 18.7392C130.408 18.641 130.169 18.5528 129.945 18.437C129.756 18.3382 129.6 18.2065 129.526 17.9766C129.48 17.8343 129.353 17.7014 129.232 17.6038C129.052 17.461 129.008 17.2663 129.011 17.0747C129.018 16.5632 129.059 16.0522 129.08 15.5407C129.085 15.4113 129.08 15.2761 129.051 15.1503C128.936 14.6729 128.816 14.196 128.684 13.7233C128.607 13.4493 128.472 13.1889 128.419 12.912C128.344 12.5168 128.234 12.0988 128.603 11.766C128.653 11.7219 128.715 11.6661 128.724 11.6085C128.782 11.2069 129.112 10.9652 129.29 10.6348C129.384 10.4608 129.559 10.2997 129.736 10.2062C130.262 9.92926 130.795 9.69937 131.432 9.77286C131.917 9.8293 132.42 9.78286 132.911 9.74405C133.295 9.71289 133.582 9.81049 133.86 10.0951C134.27 10.5143 134.604 10.9799 134.916 11.4697C135.164 11.8589 135.455 12.2252 135.533 12.6973C135.556 12.8367 135.568 12.9819 135.556 13.1224Z" fill="black"/>
<path d="M124.814 18.4717C124.507 18.7798 124.191 19.1002 123.821 19.3178C123.444 19.5394 123.006 19.724 122.577 19.7728C122.186 19.8175 121.873 20.0421 121.497 20.0827C121.475 20.0856 121.445 20.0986 121.433 20.1162C121.211 20.4496 120.813 20.4819 120.506 20.5031C119.958 20.5413 119.386 20.6748 118.845 20.4884C118.5 20.3696 118.158 20.2891 117.797 20.2561C117.413 20.2209 117.032 20.145 116.648 20.1374C116.086 20.1262 115.628 19.9004 115.208 19.5559C115.023 19.4036 114.828 19.2643 114.642 19.1137C114.316 18.8498 113.96 18.6116 113.68 18.3047C113.487 18.0936 113.4 17.7861 113.268 17.5198C113.245 17.4728 113.245 17.4104 113.214 17.3716C112.818 16.8754 112.764 16.2445 112.576 15.6719C112.498 15.4379 112.62 15.1262 112.69 14.8599C112.731 14.7041 113.173 14.54 113.342 14.5747C113.454 14.5977 113.568 14.6118 113.733 14.6376C113.733 14.2761 113.704 13.9591 113.74 13.6499C113.784 13.2848 113.868 12.922 113.964 12.5657C114.039 12.2864 114.132 12.006 114.263 11.749C114.423 11.4333 114.632 11.1411 114.82 10.8389C114.848 10.7942 114.87 10.7371 114.911 10.7101C115.433 10.3626 115.755 9.81053 116.236 9.42131C116.287 9.38015 116.325 9.32194 116.408 9.22728L116.624 9.18024C116.905 9.11792 117.011 8.79161 117.336 8.73281C117.641 8.67754 117.927 8.51821 118.222 8.40473C118.27 8.38592 118.319 8.34594 118.366 8.34829C118.713 8.36357 119.061 8.37592 119.406 8.41061C119.729 8.44295 120.037 8.43589 120.273 8.27832C120.458 8.32888 120.605 8.39297 120.756 8.40649C121.302 8.45529 121.727 8.73634 122.126 9.07912C122.216 9.15673 122.32 9.2167 122.414 9.29019C122.503 9.36016 122.589 9.43542 122.672 9.51244C122.701 9.5389 122.711 9.58946 122.742 9.60945C123.199 9.89402 123.361 10.3756 123.596 10.8195C123.729 11.0723 123.851 11.318 123.914 11.5944C123.997 11.9577 123.894 12.2047 123.56 12.3899C123.261 12.5557 122.954 12.708 122.644 12.8532C122.571 12.8873 122.475 12.8732 122.39 12.8779C122.343 12.8802 122.276 12.855 122.252 12.8773C122.094 13.0308 121.92 12.989 121.727 12.969C121.321 12.9273 121.197 12.8332 121.212 12.4475C121.22 12.2364 121.22 11.9954 121.32 11.8255C121.462 11.5867 121.444 11.3357 121.467 11.094C121.481 10.9459 121.37 10.7765 121.29 10.6301C121.209 10.4837 121.127 10.3074 120.994 10.2262C120.792 10.1022 120.55 9.99985 120.316 9.97575C119.993 9.94282 119.657 9.96281 119.333 10.0116C118.553 10.1292 117.798 10.3162 117.147 10.8148C116.778 11.097 116.509 11.4456 116.294 11.8413C116.087 12.2241 116.131 12.6521 116.186 13.0566C116.278 13.7487 116.375 14.4466 116.559 15.1174C116.721 15.7036 116.729 16.3321 117.043 16.8789C117.227 17.2 117.369 17.5174 117.749 17.6997C118.061 17.8491 118.326 18.1225 118.571 18.3794C118.871 18.6934 119.24 18.6504 119.6 18.6416C120.152 18.6293 120.706 18.611 121.252 18.5411C121.525 18.5064 121.804 18.3859 122.044 18.243C122.397 18.0331 122.714 17.7614 123.056 17.5304C123.247 17.4004 123.45 17.227 123.663 17.2017C123.968 17.1653 124.295 17.2146 124.598 17.2858C125.026 17.3857 125.117 18.1677 124.814 18.4717Z" fill="black"/>
<path d="M112.266 19.5006C112.209 19.7993 112.077 20.0109 111.779 20.1873C111.512 20.3455 111.243 20.5019 110.963 20.6318C110.642 20.7818 110.292 20.7324 109.951 20.7047C109.753 20.6889 109.556 20.6524 109.358 20.6436C109.135 20.6336 108.944 20.5624 108.774 20.4184C108.524 20.2044 108.28 20.0039 108.5 19.6164C108.558 19.5141 108.523 19.3542 108.519 19.2207C108.501 18.7527 108.457 18.2841 108.462 17.8161C108.469 17.274 109.007 16.8466 109.648 16.8454C109.891 16.8577 110.138 16.8466 110.375 16.8883C110.68 16.9418 110.882 17.1741 111.065 17.401C111.255 17.6368 111.407 17.9025 111.59 18.1442C111.649 18.2224 111.756 18.2653 111.842 18.3241C112.132 18.524 112.393 18.7321 112.264 19.1531C112.232 19.259 112.287 19.3889 112.266 19.5006Z" fill="black"/>
<path d="M152.105 13.7168C152.105 14.0156 152.155 14.3249 152.095 14.6109C151.984 15.1335 152.166 15.6486 152.08 16.1663C152.059 16.2934 152.095 16.4305 152.104 16.5623C152.105 16.574 152.116 16.5878 152.113 16.5974C152.01 16.8983 152.12 17.2066 152.084 17.5075C152.036 17.9152 152.204 18.2288 152.431 18.5509C152.701 18.9321 153.074 19.1952 153.399 19.512C153.44 19.5519 153.49 19.5833 153.537 19.6173C153.622 19.6795 153.711 19.7374 153.793 19.8033C153.902 19.8905 154.007 20.0207 153.93 20.1403C153.864 20.2429 153.738 20.3583 153.566 20.3057C153.409 20.2573 153.26 20.345 153.098 20.3407C152.429 20.3221 151.76 20.3402 151.091 20.3583C150.589 20.3721 150.087 20.4109 149.586 20.4306C149.357 20.4396 149.127 20.4242 148.899 20.4327C148.72 20.4391 148.543 20.4705 148.365 20.4811C148.244 20.488 148.121 20.4928 148.003 20.4731C147.846 20.4471 147.74 20.3471 147.722 20.1823C147.718 20.1446 147.749 20.0691 147.771 20.0665C148.139 20.0245 148.213 19.6997 148.302 19.4477C148.382 19.2229 148.474 19.0054 148.562 18.7848C148.691 18.46 148.819 18.1326 148.91 17.7961C148.956 17.6292 149.016 17.4958 149.17 17.4368C149.317 17.3804 149.37 17.2746 149.396 17.1391C149.465 16.7781 149.522 16.4193 149.384 16.0584C149.345 15.9585 149.316 15.841 149.33 15.7379C149.408 15.1797 149.264 14.6476 149.172 14.1075C149.147 13.9576 149.185 13.7971 149.192 13.6419C149.197 13.527 149.333 13.3888 149.132 13.307C149.12 13.3017 149.126 13.2442 149.128 13.2113C149.143 12.9971 149.162 12.7828 149.172 12.5681C149.174 12.5346 149.123 12.5022 149.111 12.4644C149.079 12.3618 149.018 12.2518 149.033 12.1545C149.088 11.8 148.924 11.5326 148.728 11.2705C148.692 11.2232 148.629 11.1759 148.628 11.1275C148.621 10.8474 148.404 10.8049 148.208 10.7565C148.068 10.7225 147.917 10.7134 147.774 10.7219C147.449 10.7416 147.122 10.7661 146.8 10.8144C146.613 10.8426 146.446 10.9287 146.316 11.0914C146.185 11.2546 146.019 11.3906 145.864 11.5336C145.752 11.6362 145.61 11.7138 145.525 11.8335C145.453 11.9329 145.478 12.1099 145.398 12.1933C145.29 12.3071 145.236 12.44 145.163 12.5681C145.082 12.71 144.976 12.8408 144.916 12.9907C144.851 13.1533 144.792 13.332 144.792 13.5037C144.792 14.0304 144.822 14.5572 144.839 15.084C144.867 15.9877 144.903 16.8914 144.918 17.795C144.924 18.1592 145.095 18.4388 145.33 18.6716C145.488 18.8284 145.621 18.9874 145.715 19.1856C145.762 19.2835 145.77 19.4031 145.893 19.4642C145.935 19.4854 145.943 19.5801 145.962 19.6423C146.002 19.7757 146.025 19.916 146.079 20.0431C146.164 20.2451 146.07 20.4029 145.858 20.4003C145.359 20.3944 144.856 20.3423 144.382 20.5746C144.306 20.6113 144.196 20.5879 144.104 20.5773C143.965 20.5608 143.825 20.5018 143.689 20.5124C143.397 20.5358 143.108 20.5932 142.819 20.497C142.797 20.4896 142.769 20.4912 142.747 20.4981C142.265 20.6459 141.8 20.4375 141.325 20.4205C141.183 20.4152 141.009 20.3392 140.901 20.1893C140.866 20.1403 140.715 20.1425 140.71 20.1095C140.695 19.9926 140.694 19.8607 140.736 19.7528C140.866 19.4174 140.968 19.0538 141.176 18.771C141.372 18.5036 141.464 18.2097 141.586 17.9194C141.621 17.8339 141.641 17.7355 141.642 17.6425C141.645 17.3565 141.655 17.0684 141.626 16.7845C141.611 16.6373 141.788 16.5618 141.713 16.4002C141.663 16.2918 141.671 16.1567 141.654 16.0334C141.653 16.0217 141.654 16.0084 141.658 15.9973C141.707 15.8378 141.799 15.6773 141.794 15.5194C141.79 15.3695 141.663 15.2318 141.676 15.058C141.695 14.7858 141.683 14.5115 141.709 14.2399C141.743 13.8949 141.624 13.5605 141.64 13.2251C141.656 12.8732 141.457 12.5537 141.534 12.1986C141.566 12.053 141.415 11.9185 141.476 11.7612C141.314 11.6554 141.391 11.4762 141.346 11.3348C141.295 11.1732 141.253 11.009 141.196 10.85C141.172 10.7831 141.131 10.7161 141.081 10.6661C140.891 10.4737 140.816 10.2031 140.597 10.0208C140.396 9.85387 140.255 9.61626 140.081 9.41585C140.027 9.35366 139.957 9.28775 139.882 9.26648C139.778 9.23725 139.662 9.19685 139.719 9.09C139.78 8.97678 139.754 8.7785 139.958 8.76627C139.994 8.76415 140.032 8.75458 140.067 8.76042C140.252 8.79232 140.443 8.87312 140.622 8.85132C140.826 8.82634 141.003 8.86142 141.186 8.92468C141.38 8.99272 141.577 9.00442 141.778 8.9688C141.849 8.95604 141.927 8.92893 141.991 8.94701C142.102 8.97784 142.205 9.08043 142.308 9.07618C142.414 9.07193 142.513 8.96721 142.621 8.92149C142.673 8.8997 142.742 8.90289 142.801 8.91192C143.157 8.96614 143.513 9.01824 143.866 9.08628C143.98 9.10807 144.083 9.1793 144.192 9.22449C144.304 9.27127 144.303 9.33559 144.283 9.45253C144.254 9.62157 144.285 9.80071 144.291 9.9756C144.293 10.033 144.293 10.091 144.295 10.1484C144.31 10.5316 144.325 10.9154 144.343 11.2987C144.344 11.3258 144.365 11.3518 144.377 11.3784C144.39 11.3593 144.403 11.3396 144.417 11.321C144.628 11.034 144.825 10.7352 145.055 10.4646C145.24 10.2462 145.442 10.0261 145.678 9.87035C145.975 9.67526 146.183 9.41745 146.398 9.14954C146.515 9.00495 146.678 8.8492 146.848 8.80773C147.105 8.74448 147.323 8.47975 147.626 8.62806C147.812 8.50049 148.043 8.62115 148.254 8.48348C148.4 8.38832 148.661 8.4468 148.865 8.47125C149.229 8.51431 149.587 8.5866 149.927 8.74395C150.072 8.81092 150.248 8.75617 150.417 8.83166C150.649 8.93531 150.8 9.07405 150.926 9.29519C151.054 9.52004 151.262 9.69759 151.418 9.90756C151.604 10.1569 151.782 10.4131 151.941 10.6799C151.974 10.7352 151.897 10.8484 151.893 10.9362C151.89 10.9989 151.923 11.0632 151.94 11.127C151.987 11.0978 152.042 11.076 152.079 11.0372C152.271 10.8357 152.457 10.6294 152.646 10.4258C152.75 10.3137 152.83 10.1702 153.013 10.1638C153.039 10.1627 153.073 10.1213 153.088 10.091C153.243 9.79221 153.562 9.65985 153.773 9.41639C153.848 9.32974 153.914 9.17718 154.095 9.25904C154.125 9.27233 154.211 9.18568 154.256 9.13253C154.515 8.83166 154.854 8.67803 155.23 8.58394C155.346 8.55471 155.454 8.49357 155.571 8.46912C156.057 8.36759 156.532 8.41597 156.97 8.65411C157.23 8.79551 157.476 8.94913 157.772 9.02196C157.924 9.0597 158.053 9.19578 158.192 9.28721C158.241 9.31964 158.286 9.37227 158.338 9.38183C158.487 9.40841 158.564 9.50569 158.638 9.62317C158.674 9.68111 158.735 9.72629 158.791 9.76882C158.908 9.85812 159.082 9.91766 158.942 10.1213C158.933 10.1345 158.991 10.1925 159.015 10.2313C159.092 10.3514 159.179 10.4662 159.241 10.5933C159.361 10.8399 159.469 11.0935 159.579 11.3449C159.707 11.6352 159.785 11.9307 159.756 12.2566C159.737 12.4681 159.784 12.685 159.786 12.8998C159.789 13.0858 159.851 13.2783 159.7 13.4526C159.656 13.5026 159.701 13.6174 159.749 13.7179C159.826 13.8763 159.803 14.0969 159.777 14.2856C159.763 14.3908 159.741 14.4764 159.767 14.5902C159.81 14.7731 159.843 14.9804 159.797 15.1553C159.747 15.3429 159.867 15.5056 159.797 15.6932C159.729 15.8723 159.882 16.0988 159.709 16.2737C159.826 16.406 159.803 16.5586 159.759 16.7059C159.686 16.9509 159.771 17.197 159.746 17.4352C159.728 17.6 159.725 17.7796 159.804 17.8769C159.986 18.0991 159.941 18.4473 160.228 18.6014C160.263 18.62 160.269 18.6881 160.297 18.7274C160.474 18.9842 160.561 19.2925 160.847 19.4886C161.081 19.6492 161.036 19.8671 160.786 20.152C160.641 20.3174 160.445 20.3386 160.245 20.1706C160.029 19.9888 159.769 19.9782 159.53 20.0011C159.227 20.0303 158.918 19.9809 158.616 20.0914C158.495 20.1356 158.331 20.0797 158.192 20.0473C157.889 19.9772 157.618 20.1037 157.334 20.16C157.066 20.2132 156.805 20.277 156.543 20.3609C156.352 20.4221 156.115 20.3631 155.904 20.3259C155.791 20.3062 155.788 20.3188 155.766 20.2534C155.766 20.2534 155.745 20.2128 155.81 20.0789C155.788 19.839 155.737 19.6598 155.878 19.4201C156.019 19.1814 156.132 18.9273 156.255 18.6785C156.325 18.5366 156.36 18.3973 156.349 18.2272C156.329 17.9333 156.289 17.6404 156.35 17.3363C156.398 17.1008 156.326 16.8425 156.318 16.5942C156.314 16.4507 156.312 16.3008 156.346 16.1631C156.39 15.9898 156.275 15.8463 156.296 15.6672C156.312 15.5348 156.259 15.3689 156.25 15.2137C156.24 15.0569 156.265 14.8841 156.131 14.7529C156.101 14.7231 156.087 14.662 156.089 14.6168C156.116 14.0879 155.903 13.5807 155.95 13.0502C155.956 12.9832 155.936 12.9136 155.927 12.8456C155.897 12.634 155.809 12.4527 155.701 12.2651C155.6 12.0881 155.598 11.8563 155.54 11.6522C155.525 11.6006 155.474 11.5464 155.425 11.5193C155.236 11.4156 155.127 11.2477 155.019 11.0706C154.982 11.0095 154.895 10.9367 154.834 10.9393C154.284 10.9633 153.754 11.0196 153.327 11.4539C153.048 11.7388 152.73 11.9828 152.554 12.3539C152.183 12.5282 152.293 12.9503 152.114 13.2299C152.041 13.3431 152.116 13.551 152.124 13.7158C152.119 13.7158 152.113 13.7158 152.108 13.7158L152.105 13.7168Z" fill="black"/>
</svg>
